<mxfile host="65bd71144e">
    <diagram id="kzd7g-3dxtVqDRoavwOo" name="Page-1">
        <mxGraphModel dx="617" dy="306" grid="1" gridSize="10" guides="1" tooltips="1" connect="1" arrows="1" fold="1" page="1" pageScale="1" pageWidth="827" pageHeight="1169" math="0" shadow="0">
            <root>
                <mxCell id="0"/>
                <mxCell id="1" parent="0"/>
                <mxCell id="UOO7fNZQluvXVKN6bC9T-1" value="" style="rounded=0;whiteSpace=wrap;html=1;fillColor=#41C8C8;strokeColor=none;" parent="1" vertex="1">
                    <mxGeometry x="80" y="240" width="650" height="180" as="geometry"/>
                </mxCell>
                <mxCell id="UOO7fNZQluvXVKN6bC9T-4" value="" style="shape=image;html=1;verticalAlign=top;verticalLabelPosition=bottom;labelBackgroundColor=#ffffff;imageAspect=0;aspect=fixed;image=https://cdn4.iconfinder.com/data/icons/evil-icons-user-interface/64/menu-128.png" parent="1" vertex="1">
                    <mxGeometry x="660" y="310" width="44" height="44" as="geometry"/>
                </mxCell>
                <mxCell id="UOO7fNZQluvXVKN6bC9T-5" value="" style="whiteSpace=wrap;html=1;aspect=fixed;fillColor=#41C8C8;strokeColor=none;align=left;rounded=0;fontFamily=Helvetica;" parent="1" vertex="1">
                    <mxGeometry x="460" y="420" width="270" height="270" as="geometry"/>
                </mxCell>
                <mxCell id="UOO7fNZQluvXVKN6bC9T-6" value="Menu 1" style="text;html=1;resizable=0;autosize=1;align=center;verticalAlign=middle;points=[];fillColor=none;strokeColor=none;rounded=0;fontSize=20;" parent="1" vertex="1">
                    <mxGeometry x="470" y="420" width="90" height="40" as="geometry"/>
                </mxCell>
                <mxCell id="UOO7fNZQluvXVKN6bC9T-7" value="Menu 2" style="text;html=1;resizable=0;autosize=1;align=center;verticalAlign=middle;points=[];fillColor=none;strokeColor=none;rounded=0;fontSize=20;" parent="1" vertex="1">
                    <mxGeometry x="470" y="460" width="90" height="40" as="geometry"/>
                </mxCell>
                <mxCell id="UOO7fNZQluvXVKN6bC9T-8" value="Menu 3" style="text;html=1;resizable=0;autosize=1;align=center;verticalAlign=middle;points=[];fillColor=none;strokeColor=none;rounded=0;fontSize=20;" parent="1" vertex="1">
                    <mxGeometry x="470" y="500" width="90" height="40" as="geometry"/>
                </mxCell>
                <mxCell id="UOO7fNZQluvXVKN6bC9T-9" value="Menu 4" style="text;html=1;resizable=0;autosize=1;align=center;verticalAlign=middle;points=[];fillColor=none;strokeColor=none;rounded=0;fontSize=20;" parent="1" vertex="1">
                    <mxGeometry x="470" y="540" width="90" height="40" as="geometry"/>
                </mxCell>
                <mxCell id="UOO7fNZQluvXVKN6bC9T-10" value="Menu 5" style="text;html=1;resizable=0;autosize=1;align=center;verticalAlign=middle;points=[];fillColor=none;strokeColor=none;rounded=0;fontSize=20;" parent="1" vertex="1">
                    <mxGeometry x="470" y="580" width="90" height="40" as="geometry"/>
                </mxCell>
                <mxCell id="UOO7fNZQluvXVKN6bC9T-11" value="&lt;font style=&quot;font-size: 20px;&quot;&gt;Menu 6&lt;/font&gt;" style="text;html=1;resizable=0;autosize=1;align=center;verticalAlign=middle;points=[];fillColor=none;strokeColor=none;rounded=0;fontSize=23;" parent="1" vertex="1">
                    <mxGeometry x="470" y="620" width="90" height="40" as="geometry"/>
                </mxCell>
                <mxCell id="UOO7fNZQluvXVKN6bC9T-12" value="LOGO" style="ellipse;whiteSpace=wrap;html=1;aspect=fixed;" parent="1" vertex="1">
                    <mxGeometry x="110" y="280" width="100" height="100" as="geometry"/>
                </mxCell>
                <mxCell id="UOO7fNZQluvXVKN6bC9T-13" value="&lt;font style=&quot;font-size: 19px;&quot;&gt;Dropdown when hamburger icon clicked&lt;/font&gt;" style="text;html=1;resizable=0;autosize=1;align=center;verticalAlign=middle;points=[];fillColor=none;strokeColor=none;rounded=0;" parent="1" vertex="1">
                    <mxGeometry x="419" y="700" width="360" height="40" as="geometry"/>
                </mxCell>
                <mxCell id="UOO7fNZQluvXVKN6bC9T-15" value="Hamburger icon" style="text;html=1;resizable=0;autosize=1;align=center;verticalAlign=middle;points=[];fillColor=none;strokeColor=none;rounded=0;fontFamily=Helvetica;fontSize=20;" parent="1" vertex="1">
                    <mxGeometry x="730" y="314" width="170" height="40" as="geometry"/>
                </mxCell>
                <mxCell id="UOO7fNZQluvXVKN6bC9T-16" value="Navbar -mobile" style="text;html=1;resizable=0;autosize=1;align=center;verticalAlign=middle;points=[];fillColor=none;strokeColor=none;rounded=0;fontFamily=Helvetica;fontSize=20;" parent="1" vertex="1">
                    <mxGeometry x="280" y="120" width="160" height="40" as="geometry"/>
                </mxCell>
            </root>
        </mxGraphModel>
    </diagram>
</mxfile>